<?xml version="1.0" encoding="utf-8"?>
<svg viewBox="0 0 1280 1280" style="enable-background:new 0 0 1280 1280;" xmlns="http://www.w3.org/2000/svg">
  <defs>
    <style type="text/css">
	.st0{fill:#FEFEFE;}
	.st1{fill:#575757;}
	.st2{fill:#737474;}
	.st3{fill:#747575;}
</style>
  </defs>
  <path class="st0" d="M619.7,60.9h39l35.9,2.3l31.2,3.1l27.3,3.9l18.7,3.9l24.2,6.2l23.4,6.2l21.1,7l15.6,6.2l23.4,10.1l18,8.6&#10;&#9;l19.5,9.4l21.9,10.9l18,10.9l19.5,13.3l14,10.1l14.8,10.9l10.9,9.4l10.9,8.6l9.4,8.6l6.2,5.5l10.1,10.1l6.2,5.5l8.6,8.6l5.5,6.2&#10;&#9;l6.2,6.2l7,8.6l7,7.8l8.6,10.9l8.6,10.1l9.4,12.5l10.1,15.6l13.3,20.3l11.7,19.5l10.1,18l14.8,29.7l10.1,23.4l8.6,23.4l7.8,25&#10;&#9;l7,26.5l6.2,29.7l6.2,36.7l3.1,29.7l1.6,26.5v40.6l-1.6,25.8l-4.7,35.1l-5.5,31.2l-4.7,21.9l-6.2,24.2L1202,825l-10.9,31.2&#10;&#9;l-8.6,20.3l-12.5,25.8l-11.7,22.6l-8.6,14.8l-11.7,18.7l-17.2,25.8l-10.1,12.5l-7,8.6l-9.4,10.9l-7,8.6l-7,7.8l-6.2,7.8l-6.2,6.2&#10;&#9;l-4.7,5.5l-6.2,5.5l-7,7h-1.6v1.6l-6.2,5.5l-10.1,9.4l-8.6,7l-6.2,6.2l-8.6,7l-12.5,10.1l-14.8,10.1l-8.6,6.2l-16.4,10.1l-16.4,9.4&#10;&#9;l-37.5,20.3l-19.5,9.4l-35.9,14.8l-24.2,8.6l-38.2,10.1l-31.2,7l-21.9,3.9l-27.3,3.1l-30.4,2.3l-14,0.8h-21.1l-35.1-1.6l-39.8-3.9&#10;&#9;l-22.6-3.9l-31.2-7l-27.3-7l-34.3-10.9l-26.5-10.1l-19.5-8.6l-18.7-8.6l-16.4-8.6l-11.7-7l-16.4-9.4l-15.6-9.4l-13.3-9.4l-14.8-10.9&#10;&#9;l-10.9-8.6l-11.7-10.1l-10.9-9.4l-8.6-7.8l-6.2-5.5l-10.1-9.4l-11.7-10.9l-6.2-6.2v-1.6H217l-5.5-6.2l-7-7.8l-8.6-10.9l-9.4-11.7&#10;&#9;l-11.7-15.6l-10.9-14.8l-13.3-20.3l-10.1-16.4l-7.8-14l-9.4-18l-6.2-12.5l-9.4-19.5l-10.9-27.3L86.6,818l-6.2-22.6l-7-29.7&#10;&#9;l-5.5-30.4L64,706.3L61.7,679l-0.8-14v-39.8l2.3-32.8l5.5-39l6.2-33.6l9.4-39.8l7-22.6l8.6-22.6l10.1-24.2l8.6-18.7l7.8-16.4l7.8-14&#10;&#9;l6.2-10.1l10.9-18L160,320l8.6-12.5l7.8-10.9l7-9.4l8.6-10.1l7.8-10.1l7-7.8l5.5-6.2l7-7.8l6.2-6.2l5.5-6.2l11.7-11.7l6.2-5.5&#10;&#9;l5.5-5.5l8.6-7l7.8-7l10.9-8.6l11.7-9.4l37.5-25l18.7-11.7l19.5-10.9l28.1-14l21.1-9.4L445.7,96l28.1-9.4l35.1-9.4l20.3-4.7&#10;&#9;l35.1-6.2l35.1-3.9L619.7,60.9z" style="stroke-width: 27px;"/>
  <path class="st1" d="M 143.451 479.345 L 146.801 482.695 L 156.956 507.111 L 168.733 531.529 L 176.295 545.897 L 184.722 560.267 L 194.877 576.257 L 210.868 599.917 L 219.295 610.83 L 228.587 622.605 L 237.877 633.518 L 245.44 641.945 L 251.383 648.643 L 264.022 662.148 L 270.722 668.846 L 272.45 669.711 L 272.45 671.441 L 275.8 673.169 L 285.09 682.46 L 294.382 690.023 L 302.808 697.586 L 314.586 706.876 L 325.496 715.304 L 340.622 726.215 L 360.069 738.857 L 378.653 749.768 L 398.856 760.681 L 425.001 773.32 L 452.876 784.233 L 477.293 792.659 L 501.71 800.224 L 526.99 806.164 L 559.078 812.106 L 583.496 816.321 L 581.767 820.534 L 573.341 834.038 L 563.184 850.892 L 558.971 858.457 L 558.971 863.534 L 564.048 867.747 L 572.476 871.096 L 588.465 873.58 L 601.97 872.716 L 619.689 868.503 L 633.194 862.562 L 644.97 855.862 L 653.398 849.164 L 661.824 841.602 L 671.115 829.824 L 677.815 819.671 L 680.299 818.806 L 689.589 826.368 L 698.881 834.795 L 708.173 842.358 L 719.949 853.269 L 729.24 860.833 L 740.153 870.988 L 749.444 878.55 L 759.6 887.843 L 766.297 893.784 L 778.075 903.94 L 788.23 913.231 L 797.522 920.795 L 805.949 928.358 L 815.241 935.919 L 824.531 944.348 L 831.229 950.289 L 842.142 960.446 L 848.083 966.387 L 854.027 974.813 L 856.512 980.757 L 856.512 989.183 L 853.161 995.881 L 849.812 1000.096 L 841.386 1005.173 L 831.229 1005.173 L 817.725 998.475 L 805.084 987.562 L 792.442 974.924 L 785.745 968.98 L 773.97 958.825 L 761.328 947.912 L 752.036 940.351 L 741.125 930.194 L 731.835 922.631 L 725.135 917.554 L 720.922 918.418 L 717.572 920.904 L 718.437 924.252 L 727.727 933.542 L 734.427 939.486 L 746.202 949.641 L 755.495 958.069 L 762.193 964.011 L 770.619 971.572 L 779.911 979.137 L 793.417 991.776 L 800.114 997.719 C 801.628 998.691 802.708 999.771 803.355 1000.528 C 804.005 1001.284 805.084 1002.581 805.949 1004.525 C 806.489 1005.822 806.705 1007.009 806.812 1007.874 C 806.705 1009.495 806.705 1011.007 806.598 1012.627 C 805.949 1014.681 805.192 1016.733 804.544 1018.895 C 802.492 1021.164 800.438 1023.324 798.386 1025.593 L 793.307 1029.806 C 791.04 1030.78 788.663 1031.86 786.394 1032.831 C 783.802 1033.047 781.209 1033.265 778.614 1033.481 C 776.886 1032.939 775.158 1032.4 773.43 1031.967 C 772.132 1030.995 771.053 1030.024 770.08 1029.268 C 768.998 1028.295 767.595 1027.213 766.083 1025.918 C 766.083 1025.918 765.001 1025.054 763.813 1023.973 C 760.464 1020.839 757.115 1017.815 753.657 1014.681 L 744.366 1007.118 L 733.455 996.963 L 724.163 989.399 L 713.251 979.244 L 703.959 971.682 L 693.048 961.526 L 683.756 953.963 L 673.601 944.671 L 668.521 941.322 L 662.581 942.187 L 660.096 944.671 L 660.96 948.02 L 670.25 957.313 L 676.95 963.255 L 685.376 970.818 L 694.669 978.38 L 704.823 987.671 L 711.521 993.615 L 723.299 1003.768 L 732.589 1012.197 L 739.289 1018.138 C 740.91 1019.759 742.423 1021.488 744.043 1023.108 C 744.69 1024.08 745.338 1025.161 745.987 1026.133 C 746.42 1026.89 746.85 1027.862 747.174 1029.05 C 747.715 1030.78 747.823 1032.183 747.823 1033.265 C 747.823 1034.451 747.715 1036.18 747.067 1038.126 C 746.31 1040.503 745.23 1042.231 744.474 1043.42 C 742.746 1045.688 741.125 1047.958 739.396 1050.118 L 735.183 1053.468 L 726.755 1057.681 L 719.193 1058.546 L 709.901 1056.817 L 703.203 1053.468 L 693.048 1044.176 C 692.4 1043.42 691.644 1042.662 690.995 1041.906 C 692.507 1039.855 694.128 1037.802 695.641 1035.749 L 698.99 1024.836 L 698.99 1016.41 L 696.505 1007.118 L 691.427 998.691 L 685.484 993.615 L 678.787 990.265 L 672.845 988.535 L 660.204 988.535 L 650.047 991.886 L 648.318 991.886 L 646.59 983.458 L 642.377 975.895 L 636.436 969.951 L 628.008 965.739 L 621.31 964.011 L 608.668 964.011 L 601.106 967.359 L 594.408 972.439 L 587.708 979.137 L 585.98 979.137 L 580.902 968.98 L 573.341 961.417 L 566.641 958.069 L 558.215 956.34 L 550.652 956.34 L 541.36 958.825 L 535.418 961.31 L 532.933 961.31 L 530.449 951.153 L 525.37 943.591 L 517.807 937.65 L 511.109 935.163 L 506.03 934.298 L 496.74 934.298 L 488.314 937.325 L 479.886 942.402 L 473.188 949.102 L 465.626 958.393 L 457.198 967.685 L 451.256 974.383 L 440.235 987.024 L 435.157 992.966 L 430.944 991.237 L 413.226 982.809 L 394.643 972.654 L 372.711 960.013 L 360.069 951.586 L 346.564 942.294 L 332.197 931.383 L 319.555 921.226 L 310.264 913.665 L 297.624 901.888 L 290.926 895.946 L 271.478 876.499 L 265.535 869.801 L 257.973 861.373 L 250.411 852.083 L 241.118 841.17 L 230.208 826.046 L 216.702 805.842 L 204.169 785.531 L 192.285 763.597 L 181.372 740.801 L 172.082 718.869 L 162.789 692.724 L 155.227 666.579 L 149.286 642.917 L 143.342 610.074 L 139.129 572.152 L 138.265 557.027 L 138.265 519.969 L 139.994 495.551 L 141.722 482.913 L 143.451 479.345 Z" style="fill: rgb(31, 41, 55);"/>
  <path class="st1" d="M 635.031 213.785 L 645.185 213.785 L 663.768 215.514 L 680.623 218.862 L 694.992 223.075 L 709.362 229.019 L 722.865 236.581 L 740.585 248.358 L 751.498 257.648 L 759.923 265.213 L 765.867 271.911 L 774.293 282.822 L 784.45 299.676 L 792.877 317.395 L 797.954 332.52 L 802.167 351.103 L 803.897 364.607 L 804.761 382.326 L 803.032 402.53 L 798.818 421.976 L 792.12 442.18 L 782.829 461.627 L 770.188 482.695 L 754.198 509.705 L 739.828 533.365 L 728.918 551.949 L 708.714 585.658 L 694.344 609.318 L 678.354 636.327 L 660.637 665.823 L 653.613 675.869 L 649.4 680.083 L 646.915 680.947 L 638.487 680.947 L 633.41 677.598 L 629.197 672.521 L 619.04 656.422 L 608.885 639.568 L 598.729 623.578 L 585.223 601.646 L 563.291 566.211 L 549.896 544.276 L 537.254 524.073 L 526.344 506.357 L 513.703 486.153 L 501.925 466.707 L 494.363 453.2 L 487.665 438.831 L 481.722 420.248 L 478.373 404.258 L 476.645 389.89 L 476.645 365.472 L 479.129 346.025 L 483.343 330.036 L 489.286 314.046 L 495.984 300.54 L 503.546 287.037 L 513.703 273.531 L 522.993 263.374 L 531.421 254.948 L 543.196 245.655 L 552.489 238.958 L 572.692 228.046 L 585.332 222.968 L 607.265 217.026 L 621.633 214.541 L 635.031 213.785 Z" style="fill: rgb(31, 41, 55);"/>
  <path class="st2" d="M 1135.037 481.074 L 1138.387 482.802 L 1140.871 499.657 L 1141.735 516.512 L 1141.735 556.162 L 1140.006 580.578 L 1136.658 608.453 L 1129.958 644.755 L 1122.396 675.113 L 1112.242 706.338 L 1101.329 734.211 L 1089.553 758.628 L 1078.64 779.695 L 1067.73 798.278 L 1047.526 828.638 L 1038.234 840.413 L 1027.322 853.919 L 1016.409 866.56 L 1007.119 876.714 L 996.962 887.627 L 979.244 905.346 L 972.546 911.288 L 961.633 920.579 L 949.858 929.871 L 938.945 938.297 L 922.092 950.074 L 907.722 959.364 L 883.737 973.519 L 870.233 981.081 L 868.612 981.081 L 864.397 970.926 L 858.456 961.634 L 850.894 953.207 L 838.252 941.43 L 831.554 935.489 L 823.126 927.926 L 811.351 917.77 L 801.194 908.477 L 791.904 900.916 L 780.991 890.761 L 771.701 883.197 L 759.923 872.286 L 750.633 864.721 L 737.128 852.083 L 727.838 844.518 L 718.545 836.092 L 711.847 830.15 L 703.418 822.587 L 694.128 815.025 L 685.702 807.462 L 678.138 802.383 L 673.925 804.112 L 663.012 822.694 L 655.449 832.851 L 651.236 837.928 L 639.46 847.221 L 627.685 853.919 L 615.907 858.996 L 600.784 862.345 L 584.467 862.345 L 574.312 860.617 L 572.585 859.752 L 574.312 855.539 L 582.738 840.413 L 593.651 821.83 L 603.806 804.978 L 614.719 786.394 L 621.417 775.481 L 634.059 753.55 L 635.787 751.821 L 790.066 751.821 L 794.281 753.55 L 806.921 772.997 L 816.213 786.503 L 820.426 787.367 L 841.493 779.803 L 866.774 768.891 L 893.786 755.387 L 916.581 741.882 L 937.649 728.377 L 952.775 717.464 L 967.142 706.552 L 980.649 695.639 L 992.425 685.484 L 1002.58 676.192 L 1011.007 668.631 L 1024.512 655.124 L 1030.456 648.426 L 1037.154 641.73 L 1044.715 632.436 L 1054.008 621.525 L 1064.162 608.02 L 1075.075 592.894 L 1082.638 581.983 L 1090.2 570.206 L 1099.493 555.082 L 1107.918 539.956 L 1119.696 516.295 L 1127.257 499.441 L 1133.955 483.451 L 1135.037 481.074 Z" style="fill: rgb(75, 85, 99);"/>
  <path class="st0" d="M 636.651 322.58 L 651.021 323.446 L 661.932 326.795 L 672.089 332.736 L 682.243 342.027 L 689.807 353.804 L 694.021 367.31 L 694.884 371.523 L 694.884 385.028 L 692.4 395.939 L 686.456 407.717 L 679.758 416.142 L 672.197 422.84 L 658.691 429.54 L 649.4 432.025 L 631.682 432.025 L 619.04 428.676 L 609.75 423.596 L 601.322 416.035 L 595.38 409.337 L 588.682 395.832 L 586.197 385.675 L 585.332 375.52 L 587.062 363.743 L 591.275 352.832 L 597.973 342.675 L 607.265 333.385 L 616.556 327.441 L 629.197 323.228 L 636.651 322.58 Z" style=""/>
  <path class="st2" d="M 495.876 945.753 L 506.787 945.753 L 514.351 949.102 L 519.428 955.043 L 521.913 960.985 L 521.913 971.898 L 516.836 980.324 L 507.543 991.237 L 498.253 1003.012 L 490.691 1011.441 L 483.991 1019.867 L 476.429 1027.429 L 467.136 1030.78 L 456.225 1029.05 L 448.664 1023.973 L 445.312 1019.759 L 443.584 1015.546 L 443.584 1004.633 L 446.069 998.691 L 452.012 991.13 L 462.167 979.352 L 469.731 970.926 L 476.429 962.497 L 485.719 952.343 L 491.662 947.264 L 495.876 945.753 Z" style="fill: rgb(75, 85, 99);"/>
  <path class="st2" d="M 611.371 976.111 L 622.281 976.111 L 630.709 980.324 L 634.923 985.403 L 637.407 991.345 L 637.407 1001.5 L 633.194 1009.928 L 623.902 1021.703 L 612.991 1035.208 L 606.291 1043.635 L 597.865 1053.792 L 591.167 1058.869 L 586.088 1060.596 L 579.39 1060.596 L 570.964 1057.248 L 565.02 1052.17 L 561.672 1046.229 L 560.807 1038.665 L 562.535 1031.103 L 568.479 1022.676 L 577.769 1012.52 L 587.062 999.015 L 597.973 985.512 L 605.535 978.811 L 611.371 976.111 Z" style="fill: rgb(75, 85, 99);"/>
  <path class="st3" d="M 549.896 968.441 L 560.051 968.441 L 568.479 972.654 L 573.556 979.352 L 576.041 986.05 L 576.041 992.75 L 571.827 1000.312 L 560.051 1014.681 L 550.76 1025.593 L 543.196 1034.021 L 538.119 1039.963 L 529.693 1045.04 L 525.479 1045.904 L 519.536 1045.904 L 511.109 1042.555 L 505.167 1036.613 L 501.817 1029.05 L 501.817 1020.623 L 504.302 1013.925 L 511.002 1005.497 L 519.428 996.207 L 526.99 986.915 L 537.147 976.004 L 544.709 970.062 L 549.896 968.441 Z" style="fill: rgb(75, 85, 99);"/>
  <path class="st3" d="M 663.661 999.664 L 672.953 999.664 L 679.651 1003.012 L 685.592 1009.712 L 687.323 1013.925 L 687.323 1026.565 L 683.108 1034.993 L 671.332 1050.983 L 663.768 1060.273 L 655.342 1065.351 L 652.857 1066.215 L 643.565 1066.215 L 636.867 1062.867 L 630.926 1056.169 L 628.441 1050.227 L 628.441 1040.07 L 630.926 1034.128 L 641.08 1019.759 L 647.78 1010.468 L 652.857 1004.525 L 660.419 1000.312 L 663.661 999.664 Z" style="fill: rgb(75, 85, 99);"/>
  <path class="st1" d="M1062.7,864.4"/>
</svg>