<?xml version="1.0" encoding="utf-8"?>
<svg viewBox="0 0 1280 1280" style="enable-background:new 0 0 1280 1280;" xmlns="http://www.w3.org/2000/svg">
  <defs>
    <style type="text/css">
	.st0{fill:#FEFEFE;}
	.st1{fill:#575757;}
	.st2{fill:#737474;}
	.st3{fill:#747575;}
</style>
  </defs>
  <path class="st1" d="M 58.415 451.833 L 62.339 455.757 L 74.233 484.354 L 88.028 512.954 L 96.885 529.783 L 106.754 546.614 L 118.649 565.341 L 137.377 593.052 L 147.249 605.835 L 158.132 619.626 L 169.011 632.409 L 177.87 642.279 L 184.831 650.123 L 199.635 665.941 L 207.481 673.786 L 209.506 674.799 L 209.506 676.826 L 213.43 678.85 L 224.311 689.732 L 235.194 698.59 L 245.063 707.447 L 258.858 718.329 L 271.636 728.201 L 289.353 740.98 L 312.131 755.786 L 333.896 768.567 L 357.56 781.349 L 388.181 796.151 L 420.83 808.934 L 449.429 818.803 L 478.026 827.663 L 507.636 834.62 L 545.219 841.579 L 573.819 846.516 L 571.795 851.452 L 561.926 867.267 L 550.029 887.008 L 545.094 895.868 L 545.094 901.815 L 551.041 906.75 L 560.912 910.673 L 579.639 913.582 L 595.457 912.57 L 616.211 907.635 L 632.029 900.677 L 645.821 892.829 L 655.692 884.984 L 665.562 876.127 L 676.443 862.332 L 684.29 850.44 L 687.199 849.427 L 698.081 858.284 L 708.964 868.155 L 719.848 877.013 L 733.64 889.792 L 744.522 898.652 L 757.303 910.545 L 768.186 919.403 L 780.081 930.288 L 787.926 937.246 L 801.721 949.141 L 813.614 960.024 L 824.498 968.882 L 834.368 977.74 L 845.251 986.597 L 856.133 996.469 L 863.977 1003.427 L 876.758 1015.323 L 883.717 1022.282 L 890.679 1032.15 L 893.59 1039.114 L 893.59 1048.982 L 889.665 1056.826 L 885.742 1061.764 L 875.874 1067.71 L 863.977 1067.71 L 848.161 1059.866 L 833.355 1047.084 L 818.548 1032.28 L 810.704 1025.319 L 796.913 1013.425 L 782.106 1000.643 L 771.222 991.786 L 758.443 979.89 L 747.562 971.032 L 739.714 965.087 L 734.78 966.098 L 730.856 969.011 L 731.87 972.931 L 742.749 983.812 L 750.597 990.774 L 764.389 1002.668 L 775.273 1012.54 L 783.118 1019.5 L 792.988 1028.354 L 803.871 1037.216 L 819.69 1052.019 L 827.534 1058.979 C 829.307 1060.118 830.571 1061.382 831.329 1062.27 C 832.091 1063.154 833.355 1064.674 834.368 1066.95 C 835 1068.47 835.253 1069.86 835.379 1070.873 C 835.253 1072.772 835.253 1074.543 835.128 1076.44 C 834.368 1078.846 833.481 1081.25 832.722 1083.782 C 830.319 1086.44 827.912 1088.97 825.509 1091.626 L 819.561 1096.562 C 816.906 1097.702 814.121 1098.967 811.464 1100.104 C 808.427 1100.357 805.391 1100.612 802.352 1100.866 C 800.327 1100.232 798.303 1099.599 796.28 1099.093 C 794.759 1097.954 793.496 1096.817 792.356 1095.932 C 791.09 1094.791 789.445 1093.524 787.674 1092.008 C 787.674 1092.008 786.407 1090.995 785.016 1089.729 C 781.094 1086.058 777.171 1082.517 773.121 1078.846 L 762.238 1069.989 L 749.459 1058.093 L 738.576 1049.235 L 725.795 1037.34 L 714.912 1028.484 L 702.133 1016.588 L 691.25 1007.73 L 679.355 996.846 L 673.405 992.925 L 666.447 993.937 L 663.537 996.846 L 664.549 1000.769 L 675.43 1011.654 L 683.278 1018.613 L 693.147 1027.472 L 704.031 1036.329 L 715.924 1047.211 L 723.769 1054.172 L 737.564 1066.065 L 748.445 1075.936 L 756.293 1082.895 C 758.191 1084.794 759.963 1086.819 761.86 1088.716 C 762.618 1089.855 763.377 1091.12 764.137 1092.259 C 764.644 1093.146 765.148 1094.284 765.527 1095.676 C 766.161 1097.702 766.287 1099.345 766.287 1100.612 C 766.287 1102.002 766.161 1104.027 765.402 1106.306 C 764.515 1109.09 763.251 1111.115 762.364 1112.506 C 760.342 1115.163 758.443 1117.822 756.418 1120.352 L 751.482 1124.275 L 741.611 1129.21 L 732.755 1130.223 L 721.871 1128.198 L 714.026 1124.275 L 702.133 1113.392 C 701.374 1112.506 700.487 1111.62 699.728 1110.733 C 701.499 1108.331 703.397 1105.927 705.169 1103.522 L 709.092 1090.741 L 709.092 1080.871 L 706.181 1069.989 L 700.234 1060.118 L 693.273 1054.172 L 685.429 1050.249 L 678.47 1048.223 L 663.664 1048.223 L 651.767 1052.148 L 649.742 1052.148 L 647.719 1042.277 L 642.784 1033.418 L 635.826 1026.456 L 625.954 1021.522 L 618.109 1019.5 L 603.302 1019.5 L 594.445 1023.42 L 586.599 1029.37 L 578.753 1037.216 L 576.728 1037.216 L 570.781 1025.319 L 561.926 1016.46 L 554.078 1012.54 L 544.209 1010.515 L 535.351 1010.515 L 524.467 1013.425 L 517.508 1016.336 L 514.597 1016.336 L 511.687 1004.439 L 505.739 995.582 L 496.88 988.623 L 489.036 985.71 L 483.086 984.697 L 472.207 984.697 L 462.336 988.243 L 452.466 994.19 L 444.621 1002.037 L 435.763 1012.919 L 425.892 1023.802 L 418.933 1031.647 L 406.024 1046.453 L 400.077 1053.413 L 395.142 1051.388 L 374.39 1041.517 L 352.625 1029.623 L 326.936 1014.816 L 312.131 1004.947 L 296.312 994.063 L 279.485 981.284 L 264.678 969.387 L 253.796 960.532 L 238.991 946.738 L 231.146 939.778 L 208.368 917.001 L 201.407 909.155 L 192.549 899.284 L 183.693 888.403 L 172.808 875.621 L 160.03 857.907 L 144.211 834.243 L 129.532 810.453 L 115.612 784.764 L 102.83 758.064 L 91.949 732.376 L 81.065 701.753 L 72.209 671.132 L 65.25 643.417 L 58.287 604.95 L 53.353 560.533 L 52.341 542.818 L 52.341 499.414 L 54.367 470.814 L 56.391 456.011 L 58.415 451.833 Z" style="fill: rgb(31, 41, 55); stroke: rgb(255, 255, 255); paint-order: stroke; stroke-width: 29px; stroke-linejoin: round;"/>
  <path class="st2" d="M 1219.812 453.858 L 1223.736 455.882 L 1226.645 475.623 L 1227.658 495.365 L 1227.658 541.805 L 1225.632 570.402 L 1221.711 603.051 L 1213.864 645.569 L 1205.008 681.126 L 1193.114 717.699 L 1180.333 750.346 L 1166.54 778.944 L 1153.758 803.619 L 1140.979 825.385 L 1117.315 860.944 L 1106.432 874.735 L 1093.651 890.554 L 1080.869 905.359 L 1069.988 917.252 L 1058.092 930.034 L 1037.34 950.787 L 1029.496 957.747 L 1016.713 968.629 L 1002.922 979.512 L 990.139 989.381 L 970.4 1003.175 L 953.57 1014.056 L 925.477 1030.636 L 909.66 1039.492 L 907.762 1039.492 L 902.825 1027.598 L 895.866 1016.715 L 887.01 1006.845 L 872.202 993.051 L 864.358 986.092 L 854.486 977.235 L 840.695 965.339 L 828.799 954.455 L 817.917 945.599 L 805.136 933.705 L 794.255 924.845 L 780.461 912.066 L 769.579 903.206 L 753.761 888.403 L 742.88 879.542 L 731.995 869.674 L 724.151 862.714 L 714.278 853.856 L 703.397 844.999 L 693.528 836.141 L 684.669 830.192 L 679.734 832.217 L 666.952 853.981 L 658.094 865.878 L 653.16 871.823 L 639.367 882.709 L 625.575 890.554 L 611.781 896.499 L 594.068 900.422 L 574.956 900.422 L 563.063 898.399 L 561.039 897.386 L 563.063 892.451 L 572.932 874.735 L 585.713 852.969 L 597.608 833.231 L 610.389 811.465 L 618.234 798.683 L 633.041 772.996 L 635.065 770.972 L 815.766 770.972 L 820.701 772.996 L 835.507 795.774 L 846.389 811.593 L 851.325 812.604 L 875.998 803.745 L 905.61 790.964 L 937.247 775.147 L 963.946 759.33 L 988.622 743.512 L 1006.337 730.731 L 1023.165 717.95 L 1038.986 705.168 L 1052.778 693.274 L 1064.672 682.391 L 1074.542 673.535 L 1090.36 657.715 L 1097.322 649.869 L 1105.168 642.027 L 1114.023 631.141 L 1124.908 618.361 L 1136.801 602.543 L 1149.582 584.827 L 1158.44 572.048 L 1167.297 558.253 L 1178.182 540.541 L 1188.05 522.824 L 1201.845 495.111 L 1210.701 475.371 L 1218.546 456.642 L 1219.812 453.858 Z" style="fill: rgb(75, 85, 99); stroke: rgb(255, 255, 255); paint-order: stroke; stroke-width: 29px; stroke-linejoin: round;"/>
  <path class="st1" d="M 634.18 140.795 L 646.072 140.795 L 667.838 142.821 L 687.58 146.742 L 704.409 151.676 L 721.24 158.638 L 737.055 167.496 L 757.809 181.289 L 770.592 192.17 L 780.461 201.03 L 787.422 208.875 L 797.291 221.655 L 809.187 241.395 L 819.057 262.148 L 825.003 279.864 L 829.938 301.63 L 831.964 317.446 L 832.976 338.199 L 830.952 361.863 L 826.016 384.639 L 818.171 408.304 L 807.288 431.081 L 792.483 455.757 L 773.754 487.392 L 756.924 515.104 L 744.145 536.87 L 720.482 576.353 L 703.65 604.064 L 684.922 635.698 L 664.171 670.245 L 655.945 682.012 L 651.01 686.948 L 648.099 687.96 L 638.228 687.96 L 632.28 684.037 L 627.347 678.091 L 615.45 659.235 L 603.556 639.494 L 591.66 620.767 L 575.842 595.078 L 550.154 553.575 L 534.465 527.883 L 519.658 504.221 L 506.88 483.471 L 492.073 459.807 L 478.279 437.031 L 469.422 421.21 L 461.577 404.381 L 454.616 382.616 L 450.694 363.887 L 448.67 347.059 L 448.67 318.459 L 451.579 295.681 L 456.514 276.955 L 463.475 258.225 L 471.32 242.407 L 480.178 226.592 L 492.073 210.774 L 502.955 198.877 L 512.826 189.008 L 526.617 178.123 L 537.502 170.28 L 561.166 157.499 L 575.969 151.55 L 601.659 144.591 L 618.487 141.681 Z M 627.347 268.98 L 612.541 273.915 L 601.659 280.876 L 590.776 291.757 L 582.931 303.654 L 577.996 316.433 L 575.97 330.227 L 576.983 342.121 L 579.894 354.018 L 587.739 369.835 L 594.698 377.68 L 604.57 386.536 L 615.451 392.486 L 630.258 396.409 L 651.01 396.409 L 661.892 393.498 L 677.711 385.651 L 686.567 377.806 L 694.412 367.938 L 701.374 354.143 L 704.283 341.363 L 704.283 325.546 L 703.272 320.611 L 698.337 304.792 L 689.477 290.998 L 677.584 280.116 L 665.688 273.158 L 652.908 269.235 L 636.078 268.221 Z" style="fill: rgb(31, 41, 55); stroke: rgb(255, 255, 255); paint-order: stroke; stroke-width: 29px; stroke-linejoin: round;"/>
  <path class="st2" d="M 471.194 998.114 L 483.974 998.114 L 492.833 1002.037 L 498.779 1008.995 L 501.691 1015.954 L 501.691 1028.737 L 495.743 1038.606 L 484.859 1051.388 L 473.978 1065.179 L 465.121 1075.052 L 457.273 1084.92 L 448.417 1093.777 L 437.532 1097.702 L 424.753 1095.676 L 415.898 1089.729 L 411.972 1084.794 L 409.947 1079.859 L 409.947 1067.077 L 412.857 1060.118 L 419.818 1051.261 L 431.713 1037.467 L 440.572 1027.598 L 448.417 1017.725 L 459.298 1005.832 L 466.258 999.885 L 471.194 998.114 Z" style="fill: rgb(75, 85, 99); stroke: rgb(255, 255, 255); paint-order: stroke; stroke-width: 29px; stroke-linejoin: round;"/>
  <path class="st2" d="M 606.467 1033.671 L 619.246 1033.671 L 629.118 1038.606 L 634.053 1044.554 L 636.963 1051.514 L 636.963 1063.408 L 632.029 1073.279 L 621.146 1087.071 L 608.365 1102.889 L 600.518 1112.759 L 590.649 1124.655 L 582.804 1130.602 L 576.856 1132.624 L 569.01 1132.624 L 559.141 1128.703 L 552.18 1122.756 L 548.258 1115.796 L 547.245 1106.938 L 549.268 1098.081 L 556.231 1088.211 L 567.111 1076.316 L 577.996 1060.498 L 590.775 1044.683 L 599.632 1036.834 L 606.467 1033.671 Z" style="fill: rgb(75, 85, 99); stroke: rgb(255, 255, 255); paint-order: stroke; stroke-width: 29px; stroke-linejoin: round;"/>
  <path class="st3" d="M 534.465 1024.687 L 546.359 1024.687 L 556.231 1029.623 L 562.176 1037.467 L 565.087 1045.313 L 565.087 1053.16 L 560.152 1062.016 L 546.359 1078.846 L 535.477 1091.626 L 526.617 1101.499 L 520.671 1108.458 L 510.803 1114.404 L 505.866 1115.417 L 498.906 1115.417 L 489.036 1111.494 L 482.077 1104.534 L 478.153 1095.676 L 478.153 1085.806 L 481.063 1077.961 L 488.911 1068.09 L 498.779 1057.209 L 507.636 1046.325 L 519.533 1033.546 L 528.39 1026.585 L 534.465 1024.687 Z" style="fill: rgb(75, 85, 99); stroke: rgb(255, 255, 255); paint-order: stroke; stroke-width: 29px; stroke-linejoin: round;"/>
  <path class="st3" d="M 667.713 1061.257 L 678.596 1061.257 L 686.442 1065.179 L 693.399 1073.026 L 695.426 1077.961 L 695.426 1092.766 L 690.49 1102.637 L 676.698 1121.364 L 667.838 1132.246 L 657.969 1138.194 L 655.058 1139.206 L 644.175 1139.206 L 636.331 1135.284 L 629.372 1127.439 L 626.461 1120.48 L 626.461 1108.583 L 629.372 1101.624 L 641.264 1084.794 L 649.112 1073.912 L 655.058 1066.95 L 663.916 1062.016 L 667.713 1061.257 Z" style="fill: rgb(75, 85, 99); stroke: rgb(255, 255, 255); paint-order: stroke; stroke-width: 29px; stroke-linejoin: round;"/>
  <path class="st1" d="M1062.7,864.4"/>
</svg>