<?xml version="1.0" encoding="utf-8"?>
<!-- Generator: Adobe Illustrator 22.0.0, SVG Export Plug-In . SVG Version: 6.00 Build 0)  -->
<svg version="1.1" id="Capa_1" xmlns="http://www.w3.org/2000/svg" xmlns:xlink="http://www.w3.org/1999/xlink" x="0px" y="0px"
	 viewBox="0 0 1280 1280" style="enable-background:new 0 0 1280 1280;" xml:space="preserve">
<style type="text/css">
	.st0{fill:#FEFEFE;}
	.st1{fill:#575757;}
	.st2{fill:#737474;}
	.st3{fill:#747575;}
</style>
<path class="st0" d="M619.7,60.9h39l35.9,2.3l31.2,3.1l27.3,3.9l18.7,3.9l24.2,6.2l23.4,6.2l21.1,7l15.6,6.2l23.4,10.1l18,8.6
	l19.5,9.4l21.9,10.9l18,10.9l19.5,13.3l14,10.1l14.8,10.9l10.9,9.4l10.9,8.6l9.4,8.6l6.2,5.5l10.1,10.1l6.2,5.5l8.6,8.6l5.5,6.2
	l6.2,6.2l7,8.6l7,7.8l8.6,10.9l8.6,10.1l9.4,12.5l10.1,15.6l13.3,20.3l11.7,19.5l10.1,18l14.8,29.7l10.1,23.4l8.6,23.4l7.8,25
	l7,26.5l6.2,29.7l6.2,36.7l3.1,29.7l1.6,26.5v40.6l-1.6,25.8l-4.7,35.1l-5.5,31.2l-4.7,21.9l-6.2,24.2L1202,825l-10.9,31.2
	l-8.6,20.3l-12.5,25.8l-11.7,22.6l-8.6,14.8l-11.7,18.7l-17.2,25.8l-10.1,12.5l-7,8.6l-9.4,10.9l-7,8.6l-7,7.8l-6.2,7.8l-6.2,6.2
	l-4.7,5.5l-6.2,5.5l-7,7h-1.6v1.6l-6.2,5.5l-10.1,9.4l-8.6,7l-6.2,6.2l-8.6,7l-12.5,10.1l-14.8,10.1l-8.6,6.2l-16.4,10.1l-16.4,9.4
	l-37.5,20.3l-19.5,9.4l-35.9,14.8l-24.2,8.6l-38.2,10.1l-31.2,7l-21.9,3.9l-27.3,3.1l-30.4,2.3l-14,0.8h-21.1l-35.1-1.6l-39.8-3.9
	l-22.6-3.9l-31.2-7l-27.3-7l-34.3-10.9l-26.5-10.1l-19.5-8.6l-18.7-8.6l-16.4-8.6l-11.7-7l-16.4-9.4l-15.6-9.4l-13.3-9.4l-14.8-10.9
	l-10.9-8.6l-11.7-10.1l-10.9-9.4l-8.6-7.8l-6.2-5.5l-10.1-9.4l-11.7-10.9l-6.2-6.2v-1.6H217l-5.5-6.2l-7-7.8l-8.6-10.9l-9.4-11.7
	l-11.7-15.6l-10.9-14.8l-13.3-20.3l-10.1-16.4l-7.8-14l-9.4-18l-6.2-12.5l-9.4-19.5l-10.9-27.3L86.6,818l-6.2-22.6l-7-29.7
	l-5.5-30.4L64,706.3L61.7,679l-0.8-14v-39.8l2.3-32.8l5.5-39l6.2-33.6l9.4-39.8l7-22.6l8.6-22.6l10.1-24.2l8.6-18.7l7.8-16.4l7.8-14
	l6.2-10.1l10.9-18L160,320l8.6-12.5l7.8-10.9l7-9.4l8.6-10.1l7.8-10.1l7-7.8l5.5-6.2l7-7.8l6.2-6.2l5.5-6.2l11.7-11.7l6.2-5.5
	l5.5-5.5l8.6-7l7.8-7l10.9-8.6l11.7-9.4l37.5-25l18.7-11.7l19.5-10.9l28.1-14l21.1-9.4L445.7,96l28.1-9.4l35.1-9.4l20.3-4.7
	l35.1-6.2l35.1-3.9L619.7,60.9z"/>
<path class="st1" d="M185.8,458.1l3.1,3.1l9.4,22.6l10.9,22.6l7,13.3l7.8,13.3l9.4,14.8l14.8,21.9l7.8,10.1l8.6,10.9l8.6,10.1l7,7.8
	l5.5,6.2l11.7,12.5l6.2,6.2l1.6,0.8v1.6l3.1,1.6l8.6,8.6l8.6,7l7.8,7l10.9,8.6l10.1,7.8l14,10.1l18,11.7l17.2,10.1l18.7,10.1
	l24.2,11.7l25.8,10.1l22.6,7.8l22.6,7l23.4,5.5l29.7,5.5l22.6,3.9l-1.6,3.9l-7.8,12.5l-9.4,15.6l-3.9,7v4.7l4.7,3.9l7.8,3.1
	l14.8,2.3l12.5-0.8l16.4-3.9l12.5-5.5l10.9-6.2l7.8-6.2l7.8-7l8.6-10.9l6.2-9.4l2.3-0.8l8.6,7l8.6,7.8l8.6,7l10.9,10.1l8.6,7
	l10.1,9.4l8.6,7l9.4,8.6l6.2,5.5l10.9,9.4l9.4,8.6l8.6,7l7.8,7l8.6,7l8.6,7.8l6.2,5.5l10.1,9.4l5.5,5.5l5.5,7.8l2.3,5.5v7.8
	l-3.1,6.2l-3.1,3.9l-7.8,4.7h-9.4l-12.5-6.2l-11.7-10.1l-11.7-11.7l-6.2-5.5l-10.9-9.4l-11.7-10.1l-8.6-7l-10.1-9.4l-8.6-7l-6.2-4.7
	l-3.9,0.8l-3.1,2.3l0.8,3.1l8.6,8.6l6.2,5.5l10.9,9.4l8.6,7.8l6.2,5.5l7.8,7l8.6,7l12.5,11.7l6.2,5.5c1.4,0.9,2.4,1.9,3,2.6
	c0.6,0.7,1.6,1.9,2.4,3.7c0.5,1.2,0.7,2.3,0.8,3.1c-0.1,1.5-0.1,2.9-0.2,4.4c-0.6,1.9-1.3,3.8-1.9,5.8c-1.9,2.1-3.8,4.1-5.7,6.2
	l-4.7,3.9c-2.1,0.9-4.3,1.9-6.4,2.8c-2.4,0.2-4.8,0.4-7.2,0.6c-1.6-0.5-3.2-1-4.8-1.4c-1.2-0.9-2.2-1.8-3.1-2.5
	c-1-0.9-2.3-1.9-3.7-3.1c0,0-1-0.8-2.1-1.8c-3.1-2.9-6.2-5.7-9.4-8.6l-8.6-7l-10.1-9.4l-8.6-7l-10.1-9.4l-8.6-7l-10.1-9.4l-8.6-7
	l-9.4-8.6l-4.7-3.1l-5.5,0.8l-2.3,2.3l0.8,3.1l8.6,8.6l6.2,5.5l7.8,7l8.6,7l9.4,8.6l6.2,5.5l10.9,9.4l8.6,7.8l6.2,5.5
	c1.5,1.5,2.9,3.1,4.4,4.6c0.6,0.9,1.2,1.9,1.8,2.8c0.4,0.7,0.8,1.6,1.1,2.7c0.5,1.6,0.6,2.9,0.6,3.9c0,1.1-0.1,2.7-0.7,4.5
	c-0.7,2.2-1.7,3.8-2.4,4.9c-1.6,2.1-3.1,4.2-4.7,6.2l-3.9,3.1l-7.8,3.9l-7,0.8l-8.6-1.6l-6.2-3.1l-9.4-8.6c-0.6-0.7-1.3-1.4-1.9-2.1
	c1.4-1.9,2.9-3.8,4.3-5.7l3.1-10.1v-7.8l-2.3-8.6l-4.7-7.8l-5.5-4.7l-6.2-3.1l-5.5-1.6h-11.7l-9.4,3.1h-1.6l-1.6-7.8l-3.9-7
	l-5.5-5.5l-7.8-3.9l-6.2-1.6h-11.7l-7,3.1l-6.2,4.7l-6.2,6.2h-1.6l-4.7-9.4l-7-7l-6.2-3.1l-7.8-1.6h-7l-8.6,2.3l-5.5,2.3h-2.3
	l-2.3-9.4l-4.7-7l-7-5.5l-6.2-2.3l-4.7-0.8h-8.6L505,882l-7.8,4.7l-6.2,6.2l-7,8.6l-7.8,8.6l-5.5,6.2L460.5,928l-4.7,5.5l-3.9-1.6
	l-16.4-7.8l-17.2-9.4L398,903l-11.7-7.8l-12.5-8.6l-13.3-10.1l-11.7-9.4l-8.6-7l-11.7-10.9l-6.2-5.5l-18-18l-5.5-6.2l-7-7.8l-7-8.6
	l-8.6-10.1l-10.1-14l-12.5-18.7L242,741.5L231,721.2l-10.1-21.1l-8.6-20.3l-8.6-24.2l-7-24.2l-5.5-21.9l-5.5-30.4l-3.9-35.1l-0.8-14
	v-34.3l1.6-22.6l1.6-11.7L185.8,458.1z"/>
<path class="st1" d="M640.8,212.3h9.4l17.2,1.6l15.6,3.1l13.3,3.9l13.3,5.5l12.5,7l16.4,10.9l10.1,8.6l7.8,7l5.5,6.2l7.8,10.1
	l9.4,15.6l7.8,16.4l4.7,14l3.9,17.2l1.6,12.5l0.8,16.4l-1.6,18.7l-3.9,18l-6.2,18.7l-8.6,18l-11.7,19.5l-14.8,25l-13.3,21.9
	l-10.1,17.2l-18.7,31.2l-13.3,21.9l-14.8,25l-16.4,27.3L658,640l-3.9,3.9l-2.3,0.8h-7.8l-4.7-3.1l-3.9-4.7L626,622l-9.4-15.6
	l-9.4-14.8l-12.5-20.3l-20.3-32.8L562,518.2l-11.7-18.7l-10.1-16.4l-11.7-18.7l-10.9-18l-7-12.5l-6.2-13.3l-5.5-17.2l-3.1-14.8
	l-1.6-13.3v-22.6l2.3-18l3.9-14.8l5.5-14.8l6.2-12.5l7-12.5l9.4-12.5l8.6-9.4l7.8-7.8l10.9-8.6l8.6-6.2l18.7-10.1l11.7-4.7l20.3-5.5
	l13.3-2.3L640.8,212.3z"/>
<path class="st2" d="M1103.6,459.7l3.1,1.6l2.3,15.6l0.8,15.6v36.7l-1.6,22.6l-3.1,25.8l-6.2,33.6l-7,28.1l-9.4,28.9l-10.1,25.8
	l-10.9,22.6l-10.1,19.5l-10.1,17.2l-18.7,28.1l-8.6,10.9l-10.1,12.5l-10.1,11.7l-8.6,9.4l-9.4,10.1l-16.4,16.4l-6.2,5.5l-10.1,8.6
	l-10.9,8.6l-10.1,7.8l-15.6,10.9l-13.3,8.6L871,915.5l-12.5,7H857l-3.9-9.4l-5.5-8.6l-7-7.8l-11.7-10.9l-6.2-5.5l-7.8-7l-10.9-9.4
	l-9.4-8.6l-8.6-7l-10.1-9.4l-8.6-7l-10.9-10.1l-8.6-7l-12.5-11.7l-8.6-7l-8.6-7.8l-6.2-5.5l-7.8-7l-8.6-7l-7.8-7l-7-4.7l-3.9,1.6
	l-10.1,17.2l-7,9.4l-3.9,4.7l-10.9,8.6l-10.9,6.2l-10.9,4.7l-14,3.1H594l-9.4-1.6l-1.6-0.8l1.6-3.9l7.8-14l10.1-17.2l9.4-15.6
	l10.1-17.2l6.2-10.1l11.7-20.3l1.6-1.6h142.8l3.9,1.6l11.7,18l8.6,12.5l3.9,0.8l19.5-7l23.4-10.1l25-12.5l21.1-12.5l19.5-12.5
	l14-10.1l13.3-10.1l12.5-10.1l10.9-9.4l9.4-8.6l7.8-7l12.5-12.5l5.5-6.2l6.2-6.2l7-8.6l8.6-10.1l9.4-12.5l10.1-14l7-10.1l7-10.9
	l8.6-14l7.8-14l10.9-21.9l7-15.6l6.2-14.8L1103.6,459.7z"/>
<path class="st0" d="M642.3,313l13.3,0.8l10.1,3.1l9.4,5.5l9.4,8.6l7,10.9l3.9,12.5l0.8,3.9v12.5l-2.3,10.1l-5.5,10.9l-6.2,7.8
	l-7,6.2l-12.5,6.2l-8.6,2.3h-16.4l-11.7-3.1l-8.6-4.7l-7.8-7l-5.5-6.2l-6.2-12.5l-2.3-9.4l-0.8-9.4l1.6-10.9l3.9-10.1l6.2-9.4
	l8.6-8.6l8.6-5.5l11.7-3.9L642.3,313z"/>
<path class="st1" d="M799.2,1031.8H814l12.5,3.1l10.1,6.2l6.2,5.5l7,10.9l3.1,7.8l0.8,3.1v15.6l-3.1,11.7l-5.5,9.4l-7.8,8.6
	l-10.1,6.2l-8.6,3.1l-3.9,0.8h-14l-13.3-3.9l-9.4-5.5l-7.8-7.8l-6.2-10.9l-2.3-7l-0.8-3.9v-14l2.3-9.4l5.5-10.9l7.8-8.6l10.1-6.2
	l8.6-3.1L799.2,1031.8z"/>
<path class="st1" d="M637.7,1056.8h40.6l7,2.3l6.2,4.7l5.5,6.2l3.1,6.2l0.8,2.3v14l-3.1,7.8l-4.7,6.2l-6.2,5.5l-7.8,3.1l-3.9,0.8
	l-24.2,0.8l0.8,29.7l-2.3,0.8H633l-2.3-0.8l-0.8-4.7l-3.1-84.3L637.7,1056.8z"/>
<path class="st2" d="M512,889.8h10.1l7,3.1l4.7,5.5l2.3,5.5V914l-4.7,7.8l-8.6,10.1l-8.6,10.9l-7,7.8l-6.2,7.8l-7,7l-8.6,3.1
	l-10.1-1.6l-7-4.7l-3.1-3.9l-1.6-3.9v-10.1l2.3-5.5l5.5-7l9.4-10.9l7-7.8l6.2-7.8l8.6-9.4l5.5-4.7L512,889.8z"/>
<path class="st2" d="M618.9,917.9h10.1l7.8,3.9l3.9,4.7l2.3,5.5v9.4l-3.9,7.8l-8.6,10.9l-10.1,12.5l-6.2,7.8l-7.8,9.4l-6.2,4.7
	l-4.7,1.6h-6.2l-7.8-3.1l-5.5-4.7l-3.1-5.5l-0.8-7l1.6-7l5.5-7.8l8.6-9.4l8.6-12.5l10.1-12.5l7-6.2L618.9,917.9z"/>
<path class="st3" d="M562,910.8h9.4l7.8,3.9l4.7,6.2l2.3,6.2v6.2l-3.9,7l-10.9,13.3l-8.6,10.1l-7,7.8l-4.7,5.5l-7.8,4.7l-3.9,0.8
	h-5.5l-7.8-3.1l-5.5-5.5l-3.1-7v-7.8l2.3-6.2l6.2-7.8l7.8-8.6l7-8.6l9.4-10.1l7-5.5L562,910.8z"/>
<path class="st3" d="M667.3,939.7h8.6l6.2,3.1l5.5,6.2l1.6,3.9v11.7l-3.9,7.8l-10.9,14.8l-7,8.6l-7.8,4.7l-2.3,0.8h-8.6l-6.2-3.1
	l-5.5-6.2l-2.3-5.5v-9.4l2.3-5.5l9.4-13.3l6.2-8.6l4.7-5.5l7-3.9L667.3,939.7z"/>
<path class="st0" d="M805.5,1052.9l8.6,0.8l7.8,3.1l6.2,6.2l3.1,7l0.8,3.1v9.4l-3.1,8.6l-5.5,6.2l-8.6,4.7l-3.1,0.8h-8.6l-9.4-3.9
	l-5.5-4.7l-3.9-6.2l-2.3-10.9l1.6-8.6l4.7-7l6.2-5.5l5.5-2.3L805.5,1052.9z"/>
<path class="st1" d="M898.3,988.1l3.9,2.3l11.7,21.1l8.6,14.8l11.7,20.3l8.6,15.6l-0.8,3.9l-10.9,6.2l-3.1,1.6l-3.1-0.8l-5.5-7.8
	l-7.8-14l-10.9-18.7l-12.5-22.6L882,999l1.6-3.1l6.2-3.9L898.3,988.1z"/>
<g>
	<path class="st1" d="M216.2,817.2l3.9,0.8l7,8.6l5.5,7.8l-0.8,4.7l-8.6,14l-7.8,12.5l-7.8,13.3l-6.2,12.5l12.5-2.3l38.2-9.4
		l6.2-1.6h6.2l7.8,10.1l5.5,7.8l-0.8,3.1l-11.7,8.6l-8.6,6.2l-10.1,7.8l-14,10.1l-13.3,9.4l-6.2,4.7l-4.7,3.1l-3.9-0.8l-7-8.6
		l-3.1-4.7l1.6-3.1l3.9-3.9l8.6-6.2l10.9-7.8l0.8-3.1l-20.3,4.7l-9.4,2.3l-6.2,0.8l-3.9-2.3l-4.7-6.2l-5.5-7.8l-0.8-3.1l7-12.5
		l6.2-10.1l3.9-7v-1.6l-4.7,1.6l-10.9,7.8l-8.6,6.2l-4.7,0.8l-3.9-3.9l-7-10.1l1.6-3.1l9.4-7.8l10.9-7.8l9.4-7l14.8-10.9l14-10.1
		l7.8-5.5L216.2,817.2z"/>
	<path class="st1" d="M216.2,817.2l3.9,0.8l7,8.6l5.5,7.8l-0.8,4.7l-8.6,14l-7.8,12.5l-7.8,13.3l-6.2,12.5l12.5-2.3l38.2-9.4
		l6.2-1.6h6.2l7.8,10.1l5.5,7.8l-0.8,3.1l-11.7,8.6l-8.6,6.2l-10.1,7.8l-14,10.1l-13.3,9.4l-6.2,4.7l-4.7,3.1l-3.9-0.8l-7-8.6
		l-3.1-4.7l1.6-3.1l3.9-3.9l8.6-6.2l10.9-7.8l0.8-3.1l-20.3,4.7l-9.4,2.3l-6.2,0.8l-3.9-2.3l-4.7-6.2l-5.5-7.8l-0.8-3.1l7-12.5
		l6.2-10.1l3.9-7v-1.6l-4.7,1.6l-10.9,7.8l-8.6,6.2l-4.7,0.8l-3.9-3.9l-7-10.1l1.6-3.1l9.4-7.8l10.9-7.8l9.4-7l14.8-10.9l14-10.1
		l7.8-5.5L216.2,817.2z M215.4,820.3l-2.3,0.8v1.6l-3.9,0.8l-8.6,7l-7.8,5.5v1.6l-4.7,1.6l-9.4,7.8L174,850l-10.9,8.6l-6.2,4.7
		l-2.3,1.6v1.6l-3.1,0.8v4.7l3.1,4.7h1.6l0.8,2.3l3.9,0.8l6.2-3.1l0.8-2.3l3.9-1.6l10.1-7l10.1-3.9l-0.8,5.5l-7,11.7L178,889
		l-4.7,9.4l0.8,4.7l7,9.4l3.1,2.3l4.7,0.8l5.5-1.6l11.7-2.3l8.6-2.3l5.5-0.8h6.2l-0.8,3.1l-9.4,7.8l-10.1,7.8l-7.8,5.5l0.8,3.1
		l6.2,8.6h3.9l4.7-3.9l2.3-0.8v-1.6l3.1-1.6l12.5-8.6l3.1-3.1l5.5-2.3l6.2-5.5l8.6-5.5l7-4.7l3.9-3.1l6.2-4.7l0.8-4.7l-6.2-8.6
		l-3.9-6.2l-7,0.8l-17.2,3.9l-13.3,3.1l-12.5,3.1l-7.8,2.3h-7l2.3-7.8l8.6-14l3.1-5.5l5.5-8.6l4.7-7l4.7-8.6l1.6-3.1l-0.8-4.7
		l-5.5-7.8l-3.9-5.5H215.4z"/>
</g>
<g>
	<path class="st1" d="M999.8,910l3.9,2.3l7.8,7.8l7,8.6l9.4,10.1l5.5,6.2l9.4,10.9l7,7.8l5.5,6.2l3.1,3.9v3.9l-6.2,6.2l-7.8,6.2
		l-3.1,2.3h-5.5l-33.6-10.9l-14-4.7l-5.5-0.8l3.1,4.7l7,7.8l5.5,6.2l9.4,10.9l6.2,7.8l-0.8,3.9l-7.8,7l-4.7,3.1l-3.9-1.6l-9.4-9.4
		l-7-8.6l-8.6-9.4l-5.5-6.2l-8.6-10.1l-7-7.8l-7-8.6l-2.3-2.3l0.8-3.9l6.2-6.2l7.8-6.2l1.6-1.6h6.2l42.9,14l10.1,3.1l-2.3-4.7
		l-7-8.6l-9.4-10.1l-7-8.6l-5.5-6.2l0.8-3.9l9.4-8.6L999.8,910z"/>
	<path class="st1" d="M999.8,910l3.9,2.3l7.8,7.8l7,8.6l9.4,10.1l5.5,6.2l9.4,10.9l7,7.8l5.5,6.2l3.1,3.9v3.9l-6.2,6.2l-7.8,6.2
		l-3.1,2.3h-5.5l-33.6-10.9l-14-4.7l-5.5-0.8l3.1,4.7l7,7.8l5.5,6.2l9.4,10.9l6.2,7.8l-0.8,3.9l-7.8,7l-4.7,3.1l-3.9-1.6l-9.4-9.4
		l-7-8.6l-8.6-9.4l-5.5-6.2l-8.6-10.1l-7-7.8l-7-8.6l-2.3-2.3l0.8-3.9l6.2-6.2l7.8-6.2l1.6-1.6h6.2l42.9,14l10.1,3.1l-2.3-4.7
		l-7-8.6l-9.4-10.1l-7-8.6l-5.5-6.2l0.8-3.9l9.4-8.6L999.8,910z M998.2,913.2l-3.9,3.9l-4.7,3.9l-0.8,3.9l3.9,3.9l7,8.6l8.6,9.4
		l10.9,12.5l0.8,5.5l-9.4-1.6l-28.1-9.4l-13.3-4.7l-10.1-0.8l-5.5,4.7v1.6l-3.1,1.6v1.6l-3.1,1.6l-2.3,3.9h1.6l0.8,3.1l9.4,11.7
		l2.3,3.1h1.6l1.6,3.1l8.6,9.4l7,8.6l4.7,5.5h1.6l1.6,3.1l10.9,11.7h5.5l3.1-1.6v-1.6h1.6v-1.6h1.6l1.6-3.1l-3.1-5.5l-3.9-3.9
		l-0.8-1.6h-1.6l-1.6-3.1l-9.4-10.9l-5.5-6.2h-1.6l-1.6-3.9l-1.6-2.3l-0.8-3.9l12.5,2.3l39,12.5l7.8,1.6l5.5-2.3v-1.6l3.1-1.6
		l3.9-3.1v-1.6l2.3-0.8l1.6-2.3l-0.8-3.9l-10.9-11.7l-5.5-6.2l-1.6-2.3h-1.6l-1.6-3.9h-1.6l-1.6-3.1l-10.1-11.7l-8.6-10.1l-7.8-9.4
		L998.2,913.2z"/>
</g>
<g>
	<path class="st1" d="M314.5,933.5l3.9,0.8l7.8,6.2l10.1,7.8l12.5,10.1l14,10.9l1.6,3.1c-2.8,3.2-5.6,6.5-8.4,9.7
		c-0.6,0.6-1.1,1.3-1.7,1.9c0,0-2.1-0.3-2.1-0.3c0,0-2.6-0.4-2.6-0.4c-2.9-2.3-5.7-4.7-8.6-7l-7.8-6.2l-7-5.5l-3.9-2.3h-3.9
		l-5.5,6.2l-1.6,3.9l4.7,5.5l10.1,7.8l7.8,6.2l1.6,1.6l-0.8,3.9c-0.5,0.7-1.1,1.4-1.6,2.1c-0.5,0.5-1,1-1.5,1.6
		c-0.5,0.9-1.1,1.7-1.6,2.6c-1.5,1.2-3.1,2.3-4.6,3.5c-0.8-0.1-1.6-0.3-2.4-0.4l-7.8-5.5l-11.7-9.4l-3.1-1.6h-3.9l-3.1,1.6l-1.6,3.1
		l-1.6,2.3v4.7l7.8,7l4.7,3.1l8.6,7l7,5.5l1.6,1.6l-0.8,3.9l-7,8.6l-1.6,1.6l-3.9-0.8l-12.5-9.4l-11.7-9.4l-10.9-8.6l-10.1-7.8
		l-0.8-0.8v-3.9l9.4-12.5l7-8.6l8.6-10.9l10.1-12.5l8.6-10.9l7-8.6L314.5,933.5z"/>
	<path class="st1" d="M314.5,933.5l3.9,0.8l7.8,6.2l10.1,7.8l12.5,10.1l14,10.9c0.5,0.4,0.9,0.9,1.1,1.2c0.4,0.6,0.5,1,0.5,1.1
		c0,0.5-0.1,0.8-0.2,1c-2.8,3.4-5.5,6.7-8.3,10.1c-0.3,0.4-0.7,1-1.5,1.5c-0.4,0.3-0.8,0.5-1.2,0.6c-0.5-0.1-1-0.3-1.6-0.5
		c-0.9-0.3-1.6-0.7-2.1-1c-2.9-2.3-5.7-4.7-8.6-7l-7.8-6.2l-7-5.5l-3.9-2.3h-3.9l-5.5,6.2l-1.6,3.9l4.7,5.5l10.1,7.8l7.8,6.2
		c0.6,0.6,1.2,1.3,1.8,1.9c0.1,0.2,0.1,0.4,0.2,0.7c0,0.5-0.1,0.9-0.2,1c0,0-1.1,1.8-1.1,1.8c0,0-0.6,1-0.6,1
		c-0.7,0.9-1.4,1.8-2,2.7c-0.6,0.9-1.3,1.7-1.9,2.6c-0.7,0.6-1.4,1.2-2.1,1.9c-0.6,0.6-1.2,1.1-1.8,1.7c-0.2,0.1-0.7,0.3-1.4,0.3
		c-0.9-0.1-1.5-0.6-1.7-0.8c-2.6-1.8-5.2-3.6-7.8-5.5l-11.7-9.4l-3.1-1.6h-3.9l-3.1,1.6l-1.6,3.1l-1.6,2.3v4.7l7.8,7l4.7,3.1l8.6,7
		l7,5.5l1.6,1.6l-0.8,3.9l-7,8.6l-1.6,1.6l-3.9-0.8l-12.5-9.4l-11.7-9.4l-10.9-8.6l-10.1-7.8l-0.8-0.8v-3.9l9.4-12.5l7-8.6l8.6-10.9
		l10.1-12.5l8.6-10.9l7-8.6L314.5,933.5z M313.8,936.6v1.6l-3.1,1.6l-17.2,21.9l-7.8,9.4l-7.8,10.1l-6.2,7.8l-2.3,3.1v1.6h-1.6
		l-3.1,5.5v4.7l13.3,9.4h1.6l0.8,2.3l4.7,3.1l8.6,7h1.6l0.8,2.3l8.6,6.2l4.7,1.6l3.9-1.6l3.1-3.9l0.8-3.1l-3.9-3.9l-8.6-6.2
		l-13.3-10.1l-3.9-3.1l-0.8-3.1l2.3-6.2l6.2-6.2l7.8,0.8l7,5.5l3.9,2.3l3.1,1.6l0.8,1.6l3.9,1.6l2.3,0.8l4.7-2.3l3.9-3.9l-1.6-3.1
		l-3.9-3.9l-10.9-8.6l-7-5.5l0.8-5.5l3.1-4.7l3.1-3.1V960h7.8l3.9,3.1l3.1,0.8l0.8,2.3l3.1,1.6l0.8,1.6l2.3,0.8l0.8,1.6l2.3,0.8
		l3.9,3.9h2.3v1.6h6.2l7-3.9v-3.1l-4.7-3.9l-7-4.7l-2.3-2.3H345v-1.6h-2.3l-0.8-2.3l-6.2-5.5l-3.9-3.1h-1.6V946l-3.9-2.3h-1.6V942
		l-7.8-5.5H313.8z"/>
</g>
<g>
	<path class="st1" d="M405.9,998.2l5.5,0.8l43.7,20.3l8.6,4.7l-0.8,3.9l-5.5,10.9l-3.1,0.8l-16.4-7l-14.8-7l-6.2-0.8l-4.7,9.4
		l0.8,3.9l6.2,3.9l21.1,10.1l0.8,3.1l-6.2,12.5l-3.1,0.8l-19.5-8.6l-7-3.1H402l-4.7,9.4v3.9l6.2,3.9l21.1,10.1l6.2,3.1l1.6,1.6
		l-0.8,4.7l-4.7,9.4l-3.9,0.8l-16.4-7l-29.7-14l-7-3.9l-0.8-3.9l14.8-32l7-14.8l5.5-10.9l7.8-17.2L405.9,998.2z"/>
	<path class="st1" d="M405.9,998.2l5.5,0.8l43.7,20.3l8.6,4.7l-0.8,3.9l-5.5,10.9l-3.1,0.8l-16.4-7l-14.8-7l-6.2-0.8l-4.7,9.4
		l0.8,3.9l6.2,3.9l21.1,10.1l0.8,3.1l-6.2,12.5l-3.1,0.8l-19.5-8.6l-7-3.1H402l-4.7,9.4v3.9l6.2,3.9l21.1,10.1l6.2,3.1l1.6,1.6
		l-0.8,4.7l-4.7,9.4l-3.9,0.8l-16.4-7l-29.7-14l-7-3.9l-0.8-3.9l14.8-32l7-14.8l5.5-10.9l7.8-17.2L405.9,998.2z M407.4,999.8
		L402,1010v3.1h-1.6l-5.5,12.5l-6.2,12.5l-5.5,12.5l-9.4,20.3l-0.8,5.5l2.3,0.8v1.6l10.1,4.7l9.4,3.9l9.4,4.7l17.2,7.8l4.7-1.6
		l2.3-4.7l0.8-3.9h-1.6v-1.6l-15.6-7l-10.9-5.5l-5.5-2.3l-1.6-2.3v-4.7l4.7-9.4l2.3-2.3l7,0.8l11.7,4.7l6.2,1.6l7,0.8l2.3-2.3
		l2.3-3.1l-0.8-3.1l-6.2-3.9l-12.5-6.2l-7.8-2.3l-0.8-2.3v-5.5l5.5-10.1l0.8-0.8l10.1,0.8l3.1,2.3l3.1,0.8l3.1,2.3l9.4,3.1l5.5,1.6
		l3.9,2.3h1.6l2.3-5.5l0.8-2.3h1.6l0.8-2.3l-5.5-3.1l-5.5-1.6H448v-1.6l-2.3-1.6l-7-3.9l-3.9-1.6l-9.4-4.7l-17.2-7.8H407.4z"/>
</g>
<g>
	<path class="st1" d="M511.2,1040.4l14,1.6l30.4,6.2l22.6,5.5l0.8,3.1L576,1070l-3.1,1.6l-21.1-3.9l-2.3,10.9l-7.8,37.5l-4.7,18.7
		l-0.8,0.8h-5.5l-10.1-2.3l-3.1-3.1l0.8-9.4l10.9-53.1v-3.9l-5.5-2.3l-13.3-3.1l-2.3-2.3l0.8-8.6L511.2,1040.4z"/>
	<path class="st1" d="M511.2,1040.4l14,1.6l30.4,6.2l22.6,5.5l0.8,3.1L576,1070l-3.1,1.6l-21.1-3.9l-2.3,10.9l-7.8,37.5l-4.7,18.7
		l-0.8,0.8h-5.5l-10.1-2.3l-3.1-3.1l0.8-9.4l10.9-53.1v-3.9l-5.5-2.3l-13.3-3.1l-2.3-2.3l0.8-8.6L511.2,1040.4z M513.6,1042
		l-0.8,1.6v7.8l2.3,3.9l4.7,1.6l7.8,3.1l4.7,3.9l-1.6,10.9l-6.2,29.7l-3.1,16.4v6.2l3.1,3.1l3.1,1.6h4.7l3.1-3.1l3.1-12.5l3.1-16.4
		l7-28.1l2.3-4.7l3.9-0.8l9.4,0.8l7-4.7h3.9l2.3-6.2l-3.9-2.3l-17.2-3.9l-18-3.9l-16.4-3.1L513.6,1042z"/>
</g>
<g>
	<path class="st1" d="M1071.6,815.6l3.9,0.8l11.7,7.8l-0.8,3.1l-10.9,15.6c-0.8,0.6-1.1,1.6-0.7,2.3c0.4,0.8,1.4,0.8,1.5,0.8
		c5.5,3.6,10.9,7.3,16.4,10.9l34.3,23.4l4.7,3.9l-0.8,3.9l-6.2,9.4l-3.9,3.9l-4.7-1.6l-26.5-18l-12.5-8.6l-11.7-7.8
		c-1.4-1.6-3.1-2.2-4.1-1.6c-0.2,0.1-0.5,0.3-0.8,0.9c-0.7,1.3-1.5,2.6-2.2,3.9l-8.6,11.7l-3.1,0.8l-12.5-7.8l0.8-5.5l10.1-14.8
		l17.2-25l7.8-10.9L1071.6,815.6z"/>
	<path class="st1" d="M1071.8,814.8c1.2,0.5,2.5,1.1,3.7,1.6c4.1,2.8,8.2,5.5,12.4,8.3c-0.5,0.9-1,1.8-1.4,2.6l-10.9,15.6
		c-0.2,0.8-0.5,1.5-0.7,2.3c6,3.9,11.9,7.8,17.9,11.7l34.3,23.4l4.7,3.9l-0.8,3.9l-6.2,9.4l-3.9,3.9l-4.7-1.6l-26.5-18l-12.5-8.6
		l-11.7-7.8c-1.3-1.6-3-2.2-4.1-1.6c-0.2,0.1-0.7,0.4-1,1.3c-0.7,1.1-1.3,2.2-2,3.4l-8.6,11.7l-3.1,0.8c-4.6-2.8-9.1-5.7-13.7-8.5
		c0.7-1.6,1.3-3.1,2-4.7l10.1-14.8l17.2-25l7.8-10.9C1070.6,816.4,1071.2,815.6,1071.8,814.8z M1073.2,818.7l-3.9,3.9l-7.8,10.1
		l-7.8,12.5l-10.1,14l-5.5,9.4l0.8,4.7l3.1,3.1l3.1,0.8l5.5-2.3l3.1-4.7l1.6-1.6v-2.3h1.6l1.6-2.3l5.5-0.8l7,3.1l7.8,5.5h2.3v1.6
		l10.1,6.2h1.6v1.6l4.7,3.1h2.3v1.6l5.5,3.1l3.9,2.3l6.2,4.7h4.7l3.9-3.1l2.3-3.1l0.8-5.5l-5.5-4.7l-14-9.4l-12.5-9.4l-12.5-8.6
		l-7.8-4.7l-0.8-4.7l4.7-8.6l4.7-6.2l-0.8-3.9l-3.9-3.9L1073.2,818.7z"/>
</g>
<path class="st1" d="M799.2,1031.8H814l12.5,3.1l10.1,6.2l6.2,5.5l7,10.9l3.1,7.8l0.8,3.1v15.6l-3.1,11.7l-5.5,9.4l-7.8,8.6
	l-10.1,6.2l-8.6,3.1l-3.9,0.8h-14l-13.3-3.9l-9.4-5.5l-7.8-7.8l-6.2-10.9l-2.3-7l-0.8-3.9v-14l2.3-9.4l5.5-10.9l7.8-8.6l10.1-6.2
	l8.6-3.1L799.2,1031.8z M804.7,1032.6l-11.7,1.6l-10.9,5.5l-5.5,4.7l-7,8.6l-3.1,4.7l-2.3,7l-1.6,8.6v10.9l1.6,7l7,12.5l1.6,2.3h1.6
	v1.6h1.6v1.6l11.7,6.2l5.5,0.8v1.6l7.8,1.6H814l1.6,0.8l10.9-3.1l0.8-1.6l3.9-2.3l4.7-3.1v-1.6l3.1-1.6l1.6-3.1h1.6l1.6-3.1l1.6-0.8
	l0.8-5.5h1.6l3.1-8.6l0.8-8.6v-6.2l-1.6-5.5l-3.9-10.1l-5.5-7l-3.9-3.9l-7.8-6.2l-9.4-3.9l-3.1-0.8L804.7,1032.6z"/>
<path class="st1" d="M898.3,988.1l3.9,2.3l11.7,21.1l8.6,14.8l11.7,20.3l8.6,15.6l-0.8,3.9l-10.9,6.2l-3.1,1.6l-3.1-0.8l-5.5-7.8
	l-7.8-14l-10.9-18.7l-12.5-22.6L882,999l1.6-3.1l6.2-3.9L898.3,988.1z M896,992.8l-0.8,2.3l-2.3,0.8l-3.9,6.2l0.8,5.5l3.9,7l7,13.3
	l14,23.4l7.8,13.3l3.9,3.9h4.7l7-3.9l0.8-3.1l-6.2-12.5l-7.8-14l-10.1-18l-6.2-10.9l-6.2-9.4l-2.3-2.3h-1.6v-1.6H896z"/>
<path class="st0" d="M651.7,1075.5H672l4.7,2.3l3.1,6.2v4.7l-4.7,7l-3.9,1.6h-20.3l-1.6-3.1v-18L651.7,1075.5z"/>
<path class="st1" d="M626.7,1057.6h6.2v0.8h-4.7l0.8,2.3l1.6,41.4l2.3,37.5l1.6,5.5H647l1.6-0.8l0.8-27.3l3.9-2.3l21.9-0.8l4.7-0.8
	v-1.6l3.9-2.3l5.5-3.1h1.6l7-14l0.8-2.3v-10.9l-5.5-10.9l0.8-1.6l3.1,3.9l3.1,6.2l0.8,2.3v14l-3.1,7.8l-4.7,6.2l-6.2,5.5l-7.8,3.1
	l-3.9,0.8l-24.2,0.8l0.8,29.7l-2.3,0.8H633l-2.3-0.8l-0.8-4.7L626.7,1057.6z"/>
<path class="st1" d="M802.3,1049.8h10.1l7,3.1l3.1,1.6v1.6l3.1,1.6l3.9,4.7l3.1,6.2l1.6,7l-0.8,9.4l-2.3,6.2l-3.1,4.7l-5.5,4.7
	l-6.2,3.1l-4.7,1.6h-7l-10.1-3.1l-6.2-4.7l-3.1-3.9l-3.1-6.2l-1.6-12.5l1.6-7l1.6-4.7h1.6l1.6-4.7l7.8-5.5L802.3,1049.8z
	 M805.5,1052.9l-7.8,1.6l-7,4.7l-5.5,6.2l-2.3,6.2l-0.8,6.2l2.3,10.1l5.5,7.8l7,4.7l6.2,2.3h8.6l7.8-3.1l6.2-4.7l4.7-7l1.6-5.5v-9.4
	l-3.1-8.6l-5.5-6.2l-6.2-3.9l-7-1.6H805.5z"/>
<path class="st1" d="M650.1,1074.7h22.6l3.1,1.6l-1.6,0.8l-2.3-0.8h-22.6l0.8,18l0.8,2.3h20.3l3.9-1.6l3.9-6.2l-0.8-7l-0.8-3.1
	l2.3,2.3l0.8,2.3v6.2l-3.9,6.2l-3.9,2.3l-5.5,0.8h-15.6l-3.1-1.6l-0.8-3.1l-0.8-15.6l1.6-3.1L650.1,1074.7z"/>
<path class="st1" d="M1062.7,864.4"/>
</svg>
